<svg xmlns="http://www.w3.org/2000/svg" width="64" height="64" viewBox="0 0 64 64">
  <rect width="64" height="64" rx="14" fill="#5c1622"/>
  <path d="M16 24 h32 a3 3 0 0 1 3 3 v18 a3 3 0 0 1 -3 3 h-32 a3 3 0 0 1 -3 -3 v-18 a3 3 0 0 1 3 -3 z" fill="#f3ead7"/>
  <path d="M14 26 l18 13 l18 -13" fill="none" stroke="#8d2535" stroke-width="3" stroke-linecap="round" stroke-linejoin="round"/>
  <path d="M32 44 c-6 -7 -12 -3 -9 3 c2 4 9 8 9 8 c0 0 7 -4 9 -8 c3 -6 -3 -10 -9 -3 z" fill="#c0566a"/>
</svg>
